<svg aria-hidden="true" style="position:absolute;width:0;height:0" xmlns="http://www.w3.org/2000/svg" overflow="hidden"><defs><symbol id="clothes" viewBox="0 0 32 32"><path d="M13.752 16.653h-3.451V1.129h2.132c.272 1.724 1.768 3.047 3.567 3.047s3.295-1.323 3.567-3.047h2.132V9.77a.564.564 0 101.128 0V8.249l1.214.607a.565.565 0 00.713-.179l2.708-3.837a.564.564 0 00-.1-.759L22.625.133A.56.56 0 0022.262 0H9.735a.563.563 0 00-.364.133L4.634 4.08a.565.565 0 00-.1.759l2.708 3.837a.565.565 0 00.713.179l1.214-.607v8.969c0 .312.253.564.564.564h4.015a.564.564 0 100-1.128zm10.361-9.024l-1.285-.643V1.769l3.414 2.845-2.128 3.015zM16 3.047a2.485 2.485 0 01-2.417-1.918h4.834A2.485 2.485 0 0116 3.047zM7.887 7.629L5.759 4.614l3.414-2.845v5.217l-1.285.643z"/><path d="M26.911 10.989H15.566a.564.564 0 00-.564.564v19.883c0 .312.253.564.564.564h4.345a.564.564 0 00.563-.533l.764-13.749.764 13.749a.565.565 0 00.563.533h4.345a.564.564 0 00.564-.564V11.553a.564.564 0 00-.564-.564zm-.564 2.391h-1.779v-1.263h1.779v1.263zm-7.309 0v-1.263h4.401v1.263h-4.401zm-1.129-1.262v1.263H16.13v-1.263h1.779zM23.1 30.871l-.767-13.798a.565.565 0 00-.563-.533h-1.062a.564.564 0 00-.563.533l-.767 13.798h-3.247V14.508h10.217v16.363h-3.247z"/></symbol><symbol id="heart" viewBox="0 0 32 32"><path d="M29.505 5.07a8.81 8.81 0 00-6.347-2.672c-2.371 0-4.6.923-6.276 2.6l-.865.866-.866-.866c-1.677-1.677-3.905-2.6-6.275-2.6s-4.6.923-6.276 2.6C.924 6.674.001 8.903.001 11.274S.924 15.873 2.6 17.55l11.093 11.093c.641.641 1.482.961 2.324.961s1.683-.32 2.324-.961l11.021-11.02c3.462-3.462 3.526-9.092.144-12.551zm-1.306 11.389l-11.021 11.02a1.645 1.645 0 01-2.324 0L3.761 16.386c-1.366-1.366-2.118-3.182-2.118-5.114s.752-3.748 2.118-5.114c1.366-1.366 3.182-2.119 5.114-2.119s3.747.752 5.113 2.119l.867.867-1.327 1.328a.822.822 0 001.162 1.161l3.354-3.356a7.185 7.185 0 015.114-2.119c1.962 0 3.798.774 5.172 2.178 2.756 2.819 2.697 7.412-.131 10.24z"/><path d="M29.143 10.9A5.988 5.988 0 0027.4 7.031a5.992 5.992 0 00-2.627-1.538.822.822 0 00-.441 1.583 4.357 4.357 0 013.17 3.926.822.822 0 101.639-.102z"/></symbol><symbol id="mastercard"><path fill="var(--color1, #d9d9d9)" d="M19.284 15.572c0 5.387-4.317 9.754-9.642 9.754S0 20.959 0 15.572s4.317-9.754 9.642-9.754 9.642 4.367 9.642 9.754z"/><path fill="var(--color1, #d9d9d9)" d="M31.792 15.572c0 5.387-4.317 9.754-9.642 9.754s-9.642-4.367-9.642-9.754 4.317-9.754 9.642-9.754 9.642 4.367 9.642 9.754z"/><path fill="var(--color2, #979797)" d="M15.896 8.148c2.073 1.789 3.388 4.451 3.388 7.424s-1.314 5.635-3.388 7.424a9.78 9.78 0 01-3.388-7.424 9.78 9.78 0 013.388-7.424z"/></symbol><symbol id="hands" viewBox="0 0 32 32"><path d="M11.413 32.015a.667.667 0 01-.667-.667v-1.16c0-.412-.125-.808-.361-1.147l-1.343-1.916a20.311 20.311 0 01-1.969-3.497c-.66-1.511-2.084-4.364-4.223-6.504a.677.677 0 01-.161-.26 1.886 1.886 0 01.285-1.64c.592-.82 1.831-1.237 3.68-1.237 1.728 0 3.093 1.115 4 2.172V3.986a2.67 2.67 0 012.667-2.667 2.65 2.65 0 011.483.452C15.169.732 16.16-.014 17.321-.014s2.152.747 2.517 1.785a2.652 2.652 0 011.483-.452 2.67 2.67 0 012.667 2.667v3.025a2.645 2.645 0 011.333-.359c1.536 0 2.732 1.196 2.732 2.667v9.333l-.121 2.589a13.077 13.077 0 01-3.061 7.788 1.932 1.932 0 00-.456 1.244v1.073a.667.667 0 01-1.334 0v-1.073c0-.769.275-1.517.771-2.105A11.72 11.72 0 0026.6 21.18l.12-2.559V9.318c0-.736-.599-1.333-1.333-1.333-.8 0-1.399.597-1.399 1.333v8a.667.667 0 01-1.334 0V3.985c0-.736-.599-1.333-1.333-1.333s-1.333.597-1.333 1.333v13.333a.667.667 0 01-1.334 0V2.651c0-.736-.599-1.333-1.333-1.333s-1.333.597-1.333 1.333v14.667a.667.667 0 01-1.334 0V3.985c0-.736-.599-1.333-1.333-1.333s-1.333.597-1.333 1.333v14.333a.667.667 0 01-1.262.296c-.017-.032-1.677-3.297-4.071-3.297-1.872 0-2.433.468-2.587.668a.58.58 0 00-.123.349c2.096 2.155 3.519 4.853 4.349 6.757a18.937 18.937 0 001.84 3.267l1.343 1.916a3.33 3.33 0 01.603 1.912v1.16a.668.668 0 01-.667.668z"/></symbol><symbol id="paypal" viewBox="0 0 32 32"><path d="M29.647 5.581c1.3 2.384.871 5.194.359 6.856-2.77 9.048-15.269 8.556-17.077 8.556-1.806 0-2.227 1.684-2.227 1.684l-1.35 5.891c-.368 2.068-2.244 1.965-2.244 1.965H3.04a1.94 1.94 0 01-.285-.02c-.02.379.034 1.486 1.388 1.486H8.21s1.875.105 2.245-1.963l1.349-5.891s.422-1.684 2.228-1.684 14.307.492 17.079-8.556c.618-2.022 1.121-5.739-1.462-8.323z"/><path d="M8.095 27.284l1.35-5.892s.419-1.681 2.228-1.681c1.805 0 14.306.489 17.076-8.557C29.763 7.847 30.466 0 17.844 0H8.727S6.832-.088 6.364 1.927L.407 27.637s-.256 1.611 1.374 1.611h4.07s1.875.106 2.244-1.964zm3.436-14.955l1.211-5.224s.386-1.421 1.631-1.631c1.245-.211 3.365.038 3.91.14 3.541.665 2.788 4.015 2.788 4.015-.701 5.171-8.75 4.454-8.75 4.454-1.262-.456-.789-1.754-.789-1.754z"/></symbol><symbol id="wallet" viewBox="0 0 32 32"><path d="M30.594 13.656h-.468V7.249a2.973 2.973 0 00-2.969-2.969H14.283L5.598 1.798l-.008-.002-.008-.002-.016-.003-.024-.005-.022-.003a.21.21 0 00-.025-.002l-.021-.001h-.026l-.019.001-.027.003-.018.003-.027.006-.016.004-.027.008-.015.006-.027.011-.014.007a.215.215 0 00-.026.014l-.013.008-.025.016-.012.009-.023.018-.012.011a.189.189 0 00-.02.02l-.012.013-.017.021-.012.016-.014.021-.011.019a.139.139 0 00-.011.021l-.01.021-.009.021-.008.023a.088.088 0 00-.005.015l-.002.008-.002.008-.536 2.144H2.969A2.972 2.972 0 000 7.235l-.001.01v16.25a.47.47 0 00.938 0V9.407c.532.5 1.246.807 2.032.807h24.19a2.034 2.034 0 012.03 2.031v3.281h-5.158l-.041.002a.31.31 0 00-.044.006l-.006.001-.036.009-.008.002a.283.283 0 00-.031.011l-.012.004a.592.592 0 00-.025.012l-.016.008-.019.011-.021.013a.064.064 0 00-.013.01l-.024.018-.01.009-.024.022-.013.014-.018.02a.318.318 0 00-.027.037v.001l-2.5 3.75a.506.506 0 00-.044.083l-.012.033a.126.126 0 00-.003.01l-.009.035a.03.03 0 00-.002.009l-.005.032-.002.014-.001.026-.001.02.001.019.001.027.002.013.005.032.002.009.009.035a.126.126 0 01.003.01l.012.033a.473.473 0 00.044.083l2.5 3.75a.446.446 0 00.07.081l.015.014.028.022.013.01c.014.01.029.018.044.026l.012.006a.417.417 0 00.088.033l.015.004a.532.532 0 00.039.007l.014.002a.39.39 0 00.049.003h5.161v3.282c0 1.12-.911 2.031-2.031 2.031H2.973a2.033 2.033 0 01-2.031-2.031v-1.875a.47.47 0 00-.938 0v1.876l.001.014a2.972 2.972 0 002.968 2.954H27.16a2.973 2.973 0 002.969-2.968v-3.282h.468c.775 0 1.406-.631 1.406-1.406v-7.5c0-.775-.631-1.406-1.406-1.406zM5.806 2.833l8.271 2.363h.001l5.543 1.584H4.819l.987-3.947zm23.382 7.254a2.955 2.955 0 00-2.031-.807H2.97C1.85 9.28.939 8.369.939 7.249S1.85 5.218 2.97 5.218h1.275l-.391 1.563H2.97a.469.469 0 000 .938h23.561a.469.469 0 000-.938h-3.496l-5.471-1.563h9.592c1.12 0 2.031.911 2.031 2.031v2.838zm1.874 12.475c0 .258-.21.468-.468.468h-6.312l-2.187-3.281 2.187-3.281h6.312l.019-.001c.157-.002.308-.03.449-.08v6.175zm-.468-7.032l-.01.001h-.459v-.938h.468a.469.469 0 010 .938z"/><path d="M25.906 18.031c-.948 0-1.719.771-1.719 1.719s.771 1.719 1.719 1.719 1.719-.771 1.719-1.719a1.72 1.72 0 00-1.719-1.719zm0 2.5a.781.781 0 110-1.563.781.781 0 010 1.563z"/></symbol><symbol id="service" viewBox="0 0 32 32"><path d="M9.161 28.195a.469.469 0 01.938 0v1.049h11.803v-18.3H10.099v15.128a.469.469 0 01-.938 0V10.474c0-.259.209-.468.468-.468h3.506V8.624H9.629a.469.469 0 01-.468-.47V.468c0-.259.209-.469.468-.469h12.742c.259 0 .468.211.468.469V3.25a.468.468 0 01-.938 0V.936H10.098v6.75h11.803V5.372c0-.259.209-.468.47-.468.259 0 .468.209.468.468v2.782c0 .259-.209.47-.468.47h-3.506v1.382h3.506c.259 0 .468.209.468.468v18.769h.927c.259 0 .47.209.47.468v1.821a.469.469 0 01-.47.468H8.236a.469.469 0 01-.47-.468v-1.821c0-.259.211-.468.47-.468h.927zm4.351-24.324a.469.469 0 110-.938h4.975a.469.469 0 110 .938zm0 1.82a.469.469 0 110-.938h3.761a.47.47 0 110 .938zm-1.941 14.497a.468.468 0 01-.468-.47c0-.259.209-.468.468-.468h2.184a.468.468 0 010 .938zm2.501-10.182h3.855V8.624h-3.855zm2.398 11.917h3.49v-1.734h-3.49zm3.959.937H16a.469.469 0 01-.47-.468v-2.673c0-.259.211-.468.47-.468h4.429c.259 0 .468.209.468.468v2.673a.467.467 0 01-.468.468zm-3.368-4.491a.469.469 0 010-.938h2.898v-4.408H12.04v4.408h2.898a.469.469 0 010 .938H11.57a.469.469 0 01-.468-.47v-5.343c0-.259.209-.47.468-.47h8.858c.259 0 .468.211.468.47v5.343c0 .259-.209.47-.468.47zM8.702 30.181v.882h14.595v-.882H8.702z"/></symbol><symbol id="webmoney"><path d="M29.444 16.635l.751-.679.678.751-.751.679-.678-.751zm-1.748.834l1.002-.902.902 1.002-1.002.902-.902-1.002zm3.353-1.3l.5-.451.451.5-.5.451-.451-.5zm-2.941-2.631l.752-.677.677.752-.752.677-.677-.752zm2.302 1.136l.499-.451.452.5-.499.451-.452-.5zm-27.053-.409l-.491 2.543h-.034l-.668-2.543h-.428l-.625 2.543h-.034l-.538-2.543H0l.779 3.409h.52l.634-2.4h.034l.654 2.4h.52l.779-3.409zm23.628 1.469l1.003-.902.902 1.002-1.003.902-.902-1.002zm-.716-1.708l1.002-.902.902 1.002-1.002.902-.902-1.002zM28.8 15.05l.75-.677.678.751-.75.677-.678-.751zm.965-1.862l.5-.451.451.5-.5.451-.451-.5zm-7.728 2.105l-.546 1.771h-.029l-.615-1.77h-.529l.922 2.405c-.115.356-.317.615-.644.615v.393c.552 0 .845-.346 1.086-1.01l.869-2.404h-.515zM6.121 16.387c.001-.786-.369-1.174-.971-1.174-.721 0-1.091.528-1.091 1.259 0 .76.332 1.26 1.139 1.26.346 0 .634-.096.851-.223v-.364c-.264.157-.505.25-.764.25-.495 0-.731-.254-.731-.832H6.12v-.176zm-1.557-.146c.053-.48.279-.706.572-.706.26 0 .505.201.529.706H4.564zm25.541 1.911l.751-.677.678.752-.751.677-.678-.752zm-9.939-1.765c.001-.786-.369-1.174-.97-1.174-.722 0-1.091.528-1.091 1.259 0 .76.332 1.26 1.139 1.26.346 0 .633-.096.85-.223v-.364c-.264.157-.504.25-.763.25-.495 0-.731-.254-.731-.832h1.567v-.176zm-1.557-.146c.054-.48.28-.706.573-.706.259 0 .505.201.529.706h-1.102z"/><path d="M29.538 18.327l-.979.903-1.654-1.84.46-.405-1.158-1.296.462-.405-1.175-1.295 1.834-1.651.582.638.983-.877.581.602.387-.347a4.199 4.199 0 00-2.108-.565c-2.32 0-4.213 1.892-4.213 4.213s1.893 4.212 4.213 4.212c.754 0 1.464-.2 2.076-.549.202-.114.386-.238.554-.368l-.847-.969zM7.707 15.213c-.26 0-.505.101-.65.178v-1.37l-.5.12v3.355c.289.153.683.235.938.235.697 0 1.13-.438 1.13-1.337 0-.768-.322-1.181-.918-1.181zm-.211 2.181c-.121 0-.288-.009-.442-.076v-1.572c.192-.106.332-.158.523-.158.322 0 .544.198.544.807 0 .779-.269 1-.625 1zm9.369-2.182c-.553 0-1.01.226-1.226.355v2.105h.499v-1.903c.149-.087.394-.173.586-.173.247 0 .434.067.434.447v1.63h.5v-1.74c0-.495-.217-.72-.793-.722zm-4.999-.947l-1.028 2.687h-.024l-1.077-2.687h-.581v3.409h.432V15.26h.043l.981 2.414h.307l.981-2.472h.043v2.472h.519v-3.409zm2.221.948c-.634 0-1.096.418-1.096 1.259 0 .822.438 1.26 1.096 1.26s1.096-.438 1.096-1.26c0-.842-.462-1.259-1.096-1.259zm0 2.181c-.341 0-.591-.263-.591-.922 0-.649.275-.923.591-.923.327 0 .591.274.591.923 0 .659-.25.922-.591.922z"/></symbol><symbol id="visa"><path d="M12.813 11.238l-1.626 9.544h2.601l1.628-9.544zm-3.807.011l-2.547 6.508-.272-.983c-.502-1.184-1.929-2.885-3.603-3.956l2.329 7.959 2.752-.005 4.096-9.526-2.756.002z"/><path d="M5.199 11.932c-.151-.581-.589-.755-1.133-.775H.033l-.033.19c3.138.761 5.215 2.596 6.076 4.801l-.877-4.216zm15.488 1.136a4.821 4.821 0 011.947.365l.235.11.352-2.069a6.722 6.722 0 00-2.33-.401c-2.57 0-4.382 1.294-4.396 3.15-.017 1.371 1.29 2.136 2.278 2.593 1.014.468 1.353.766 1.349 1.184-.008.639-.808.932-1.555.932-1.042 0-1.595-.144-2.449-.5l-.335-.153-.366 2.136c.609.267 1.732.496 2.898.508 2.734 0 4.511-1.279 4.53-3.261.011-1.084-.682-1.912-2.186-2.591-.91-.443-1.466-.737-1.461-1.184 0-.397.472-.821 1.491-.821zm9.208-1.819h-2.01c-.624 0-1.088.17-1.363.792l-3.862 8.746h2.731s.446-1.176.547-1.434l3.331.004c.078.333.317 1.43.317 1.43h2.413l-2.105-9.538zM26.688 17.4c.214-.548 1.036-2.667 1.036-2.667-.014.026.212-.552.347-.911l.175.823.603 2.756h-2.161z"/></symbol><symbol><svg id="masters"  xmlns="http://www.w3.org/2000/svg"><path d="M13.258 6.706c0 3.703-2.968 6.705-6.63 6.705C2.969 13.412 0 10.41 0 6.707 0 3.002 2.968 0 6.629 0c3.66 0 6.629 3.002 6.629 6.706z" fill="#fff" fill-opacity=".56"/><path d="M21.857 6.706c0 3.703-2.968 6.705-6.629 6.705-3.66 0-6.628-3.002-6.628-6.705C8.6 3.002 11.567 0 15.228 0s6.63 3.002 6.63 6.706z" fill="#fff" fill-opacity=".44"/><path fill-rule="evenodd" clip-rule="evenodd" d="M10.929 1.602a6.723 6.723 0 012.329 5.104 6.723 6.723 0 01-2.33 5.104A6.723 6.723 0 018.6 6.706c0-2.044.903-3.874 2.329-5.104z" fill="#fff"/></svg></symbol> 
<symbol><svg id="cards" xmlns="http://www.w3.org/2000/svg"><path d="M13.258 6.706c0 3.703-2.968 6.705-6.63 6.705C2.969 13.412 0 10.41 0 6.707 0 3.002 2.968 0 6.629 0c3.66 0 6.629 3.002 6.629 6.706z" fill="#fff" fill-opacity=".56"/><path d="M21.857 6.706c0 3.703-2.968 6.705-6.629 6.705-3.66 0-6.628-3.002-6.628-6.705C8.6 3.002 11.567 0 15.228 0s6.63 3.002 6.63 6.706z" fill="#fff" fill-opacity=".44"/><path fill-rule="evenodd" clip-rule="evenodd" d="M10.929 1.602a6.723 6.723 0 012.329 5.104 6.723 6.723 0 01-2.33 5.104A6.723 6.723 0 018.6 6.706c0-2.044.903-3.874 2.329-5.104z" fill="#fff"/><path d="M57.211 2.143l-1.423 8.351h2.276l1.424-8.35h-2.277zM53.88 2.153l-2.229 5.695-.238-.86c-.44-1.036-1.687-2.524-3.152-3.462l2.038 6.964 2.408-.004 3.584-8.335-2.41.002z" fill="#fff"/><path d="M50.55 2.75c-.133-.508-.516-.66-.992-.678h-3.529L46 2.238c2.746.666 4.563 2.271 5.317 4.201l-.768-3.689zM64.101 3.744a4.202 4.202 0 011.703.32l.206.097.308-1.81A5.875 5.875 0 0064.279 2c-2.249 0-3.834 1.133-3.846 2.756-.015 1.2 1.129 1.869 1.993 2.269.886.41 1.184.67 1.18 1.036-.007.559-.707.815-1.361.815-.912 0-1.396-.126-2.143-.437l-.293-.134-.32 1.87c.532.233 1.515.434 2.535.444 2.392 0 3.947-1.119 3.964-2.853.01-.95-.597-1.673-1.913-2.267-.796-.388-1.283-.645-1.278-1.036 0-.348.413-.719 1.304-.719zM72.159 2.153H70.4c-.546 0-.952.148-1.192.693l-3.38 7.653h2.39s.39-1.03.479-1.255l2.914.004c.068.291.278 1.25.278 1.25H74l-1.841-8.345zm-2.807 5.382l.906-2.334c-.012.023.186-.483.304-.797l.153.72.527 2.411h-1.89z" fill="#fff"/></svg></symbol>
<symbol><svg id="web" xmlns="http://www.w3.org/2000/svg"><path d="M47.073 6.876l-1.17 1.058 1.057 1.17 1.17-1.058-1.057-1.17zM44.74 7.828L43.18 9.234l1.406 1.562 1.561-1.406-1.406-1.562zM49.185 6.504l-.78.703.703.78.78-.703-.703-.78zM44.992 2.05L43.82 3.105l1.055 1.172 1.172-1.055-1.055-1.172zM48.187 4.173l-.779.703.704.78.779-.704-.704-.779zM5.233 4.239l-.765 3.965h-.053L3.373 4.239h-.667l-.974 3.965h-.053L.84 4.239H0l1.214 5.314h.81l.989-3.741h.053l1.019 3.741h.81L6.11 4.239h-.877zM43.632 5.122l-1.563 1.407 1.406 1.562 1.563-1.407-1.406-1.562zM42.516 2.46l-1.562 1.406 1.406 1.562 1.562-1.406-1.406-1.562zM46.068 4.407L44.9 5.462l1.057 1.172 1.17-1.056-1.058-1.171zM47.184 1.857l-.78.702.703.78.78-.703-.703-.78zM34.355 5.842l-.851 2.761h-.045l-.959-2.76h-.824l1.438 3.749c-.18.555-.494.959-1.004.959v.613c.861 0 1.318-.539 1.693-1.574l1.355-3.748h-.803zM9.542 7.547c.001-1.225-.576-1.83-1.513-1.83-1.124 0-1.701.823-1.701 1.963 0 1.185.518 1.964 1.776 1.964.539 0 .989-.15 1.326-.347V8.73c-.412.245-.787.389-1.191.389-.771 0-1.139-.396-1.139-1.297h2.442v-.275zm-2.427-.228c.082-.748.435-1.101.892-1.101.405 0 .787.313.824 1.101H7.115zM48.105 9.244L46.934 10.3l1.056 1.172 1.172-1.056-1.057-1.172zM31.439 7.547c.002-1.225-.576-1.83-1.512-1.83-1.125 0-1.701.823-1.701 1.963 0 1.185.517 1.964 1.775 1.964.539 0 .987-.15 1.325-.347V8.73c-.411.245-.786.389-1.19.389-.771 0-1.14-.396-1.14-1.297h2.443v-.275zm-2.428-.228c.084-.748.437-1.101.894-1.101.403 0 .787.313.824 1.101h-1.718z" fill="#fff"/><path d="M46.05 10.572l-1.527 1.408-2.578-2.869.717-.631-1.805-2.021.721-.632-1.832-2.019 2.859-2.574.908.994L45.046.86l.906.939.604-.541A6.539 6.539 0 0043.27.377c-3.617 0-6.568 2.95-6.568 6.568 0 3.617 2.951 6.567 6.568 6.567a6.516 6.516 0 003.237-.856c.315-.178.602-.371.864-.574l-1.321-1.51zM12.016 5.717c-.405 0-.787.157-1.013.277V3.858l-.779.187v5.231c.45.239 1.064.367 1.462.367 1.087 0 1.761-.683 1.761-2.085 0-1.197-.502-1.841-1.431-1.841zm-.33 3.401c-.188 0-.449-.014-.689-.119V6.548c.3-.165.518-.247.816-.247.502 0 .848.308.848 1.258 0 1.214-.42 1.559-.975 1.559zM26.293 5.715c-.862 0-1.574.352-1.911.554v3.282h.778V6.584c.232-.135.615-.27.914-.27.385 0 .676.105.676.697v2.541h.779V6.84c0-.771-.338-1.123-1.236-1.125zM18.499 4.239l-1.602 4.189h-.038L15.18 4.239h-.906v5.314h.674V5.79h.067l1.529 3.763h.479l1.529-3.854h.067v3.854h.809V4.239h-.929zM21.961 5.717c-.989 0-1.709.652-1.709 1.963 0 1.281.683 1.964 1.709 1.964 1.027 0 1.709-.683 1.709-1.964 0-1.312-.72-1.963-1.709-1.963zm0 3.401c-.532 0-.922-.41-.922-1.438 0-1.012.428-1.439.922-1.439.51 0 .922.427.922 1.439 0 1.027-.39 1.438-.922 1.438z" fill="#fff"/></svg></symbol>
<stmbol><svg id="term" fill="#fff" xmlns="http://www.w3.org/2000/svg"><path fill-rule="evenodd" clip-rule="evenodd" d="M.5.863H0v33.274h26V.863H.5zM1 33.137V1.863h24v31.274H1zM2.5 2.313H2v30.011h22V2.314H2.5zM3 22.621V3.313h20v19.308H3zm0 1v7.703h20v-7.703H3zM5 4.489h16v11.88H5V4.488zm1 1v9.88h14v-9.88H6zm9 12.055h6v3.176h-6v-3.176zm1 2.176h4v-1.176h-4v1.176zM6 18.407v-.726H5v.726h1zm1-.726h1v.726H7v-.726zm3 0H9v.726h1v-.726zm-1 1.45h1v.726H9v-.725zm1 1.451H9v.726h1v-.726zm-3 0h1v.726H7v-.726zm-1 .726v-.726H5v.726h1zm0-2.176v.725H5v-.725h1zm2 0H7v.725h1v-.725z"/></svg></symbol>
</defs></svg>